<svg width="30" height="30" viewBox="0 0 122 123" fill="none" xmlns="http://www.w3.org/2000/svg">
<path d="M1.10111 72.7524L5.95959 75.0539L18.8957 81.1107C19.3155 81.3063 19.6402 81.4943 19.6402 82.0697C19.6204 88.5062 19.6402 94.9427 19.6402 101.375C19.6402 101.567 19.6085 101.759 19.5847 102.05C19.3075 101.939 19.0818 101.859 18.868 101.759C15.6568 100.225 12.4494 98.6903 9.23421 97.1905C6.71324 96.0039 4.18567 94.8327 1.6515 93.6769C1.44519 93.6141 1.2679 93.4836 1.15012 93.3079C1.03233 93.1322 0.981403 92.9222 1.00608 92.7141C1.02984 86.2776 1.04172 79.8423 1.04172 73.4084C1.04172 73.2434 1.06943 73.0785 1.10111 72.7524Z" fill="white" stroke="#1479FF" stroke-width="1.5" stroke-miterlimit="10"/>
<path d="M62.0279 120.973C62.0279 120.677 61.9844 120.443 61.9844 120.206C61.9844 113.85 62.02 107.49 62.0161 101.134C61.9882 100.895 62.0437 100.655 62.1736 100.45C62.3035 100.246 62.5004 100.089 62.7327 100.006C68.4293 97.3517 74.1194 94.6845 79.8028 92.0046C80.0007 91.9125 80.1987 91.8396 80.5076 91.7207C80.5313 92.0199 80.563 92.2462 80.563 92.4879C80.563 98.8451 80.563 105.202 80.563 111.56C80.563 112.028 80.5076 112.357 79.9809 112.603C74.1233 115.326 68.2749 118.068 62.4358 120.827C62.3368 120.869 62.222 120.9 62.0279 120.973Z" fill="white" stroke="#FFD700" stroke-width="1.5" stroke-miterlimit="10"/>
<path d="M1.18269 30.0098C2.98037 30.846 4.6553 31.6246 6.33022 32.4072C10.476 34.3673 14.6138 36.3274 18.7793 38.2414C19.0575 38.3363 19.2939 38.5204 19.4494 38.7631C19.605 39.0058 19.6703 39.2927 19.6346 39.5763C19.6346 45.7635 19.6346 51.9507 19.6346 58.1417C19.6346 58.4793 19.6346 58.813 19.6346 59.2656C19.2862 59.1314 19.0525 59.0623 18.8427 58.9626C13.1514 56.2852 7.46004 53.6116 1.76872 50.9419C1.54729 50.8664 1.35852 50.7209 1.23282 50.5289C1.10712 50.3368 1.05181 50.1094 1.07578 49.8832C1.10482 43.4901 1.12066 37.106 1.1233 30.7309C1.1233 30.5314 1.15497 30.3512 1.18269 30.0098Z" fill="white" stroke="#1479FF" stroke-width="1.5" stroke-miterlimit="10"/>
<path d="M120.977 30.0361C120.977 30.389 120.977 30.6077 120.977 30.8263C120.977 37.1823 120.977 43.5421 120.977 49.8981C120.999 50.1241 120.942 50.3508 120.815 50.5415C120.688 50.7323 120.498 50.8758 120.276 50.9491C114.624 53.5804 108.978 56.2246 103.337 58.8816C103.115 58.9851 102.889 59.0772 102.545 59.2268C102.521 58.8816 102.493 58.6322 102.493 58.3829C102.493 52.0499 102.493 45.7247 102.493 39.384C102.462 39.1585 102.511 38.9295 102.632 38.7344C102.753 38.5393 102.939 38.3897 103.159 38.31C108.861 35.6556 114.553 32.9872 120.237 30.3046C120.435 30.2126 120.648 30.1474 120.977 30.0361Z" fill="white" stroke="#FFD700" stroke-width="1.5" stroke-miterlimit="10"/>
<path d="M102.509 101.96C102.509 101.07 102.509 100.295 102.509 99.5241C102.509 93.7013 102.509 87.8786 102.509 82.0558C102.474 81.8546 102.51 81.648 102.611 81.4688C102.711 81.2896 102.87 81.1479 103.063 81.0661C108.831 78.3785 114.595 75.6819 120.355 72.9764C120.505 72.9035 120.668 72.8536 120.933 72.7539C120.953 73.0531 120.984 73.2833 120.984 73.5211C120.984 79.8579 120.984 86.1793 120.984 92.5314C121.009 92.778 120.948 93.0256 120.81 93.2343C120.672 93.443 120.466 93.6008 120.224 93.6822C114.704 96.2573 109.193 98.8452 103.689 101.446C103.376 101.607 103.031 101.741 102.509 101.96Z" fill="white" stroke="#FFD700" stroke-width="1.5" stroke-miterlimit="10"/>
<path d="M41.6072 48.9971C43.3851 49.8294 45.0165 50.5851 46.636 51.3523C49.7483 52.8252 52.8526 54.3097 55.9649 55.7826C57.1171 56.3273 58.2694 56.8759 59.4454 57.363C59.6591 57.4283 59.8417 57.5655 59.9601 57.7498C60.0785 57.9341 60.1248 58.1534 60.0908 58.368C60.0394 60.0251 59.9958 61.6822 59.9958 63.3546C59.9958 68.0228 60.0235 72.6871 60.0394 77.3553C60.0394 77.62 60.0394 77.8808 60.0394 78.2529C59.7068 78.1302 59.481 78.0611 59.2672 77.9614C53.6049 75.2993 47.9466 72.6258 42.2725 69.979C42.03 69.8913 41.8251 69.727 41.6908 69.5127C41.5564 69.2984 41.5005 69.0465 41.532 68.7976C41.532 62.4647 41.532 56.1394 41.532 49.8026C41.5478 49.5763 41.5795 49.3653 41.6072 48.9971Z" fill="white" stroke="#1479FF" stroke-width="1.5" stroke-miterlimit="10"/>
<path d="M80.5616 49.0439C80.5616 49.5042 80.5616 49.8648 80.5616 50.2292C80.5616 56.3665 80.5616 62.5039 80.5814 68.6412C80.619 68.934 80.5508 69.2304 80.3884 69.48C80.226 69.7297 79.9794 69.9171 79.6905 70.0106C74.0044 72.6381 68.3461 75.3194 62.664 77.9814C62.5333 78.0428 62.3987 78.0965 62.1611 78.2039C62.1413 77.874 62.1097 77.6209 62.1136 77.3639C62.1136 73.2544 62.1268 69.1437 62.1532 65.0317C62.1532 62.7647 62.1532 60.5016 62.1968 58.2346C62.2033 58.068 62.2479 57.9049 62.3273 57.7569C62.4067 57.609 62.519 57.48 62.6561 57.3792C68.4636 54.6097 74.2869 51.862 80.126 49.136C80.2686 49.0947 80.4142 49.0639 80.5616 49.0439Z" fill="white" stroke="#FFD700" stroke-width="1.5" stroke-miterlimit="10"/>
<path d="M59.8563 121.001L50.2977 116.517C47.621 115.258 44.9522 113.996 42.2715 112.75C41.832 112.547 41.543 112.339 41.5469 111.787C41.5469 105.354 41.5469 98.9217 41.5469 92.489C41.5469 92.3202 41.5746 92.1553 41.6023 91.8906C41.7964 91.9316 41.9871 91.9867 42.1725 92.0556C47.9087 94.7483 53.6463 97.4398 59.3851 100.13C59.5732 100.192 59.7345 100.314 59.8435 100.475C59.9525 100.636 60.003 100.828 59.987 101.02C59.9553 107.477 59.9328 113.935 59.9196 120.395C59.9276 120.556 59.8919 120.721 59.8563 121.001Z" fill="white" stroke="#1479FF" stroke-width="1.5" stroke-miterlimit="10"/>
<path d="M82.7194 111.264C82.7194 110.954 82.6798 110.72 82.6798 110.497C82.6798 104.137 82.6798 97.7775 82.6798 91.4177C82.6455 91.2052 82.6863 90.9877 82.7955 90.8004C82.9048 90.6132 83.076 90.4671 83.2817 90.3859C88.8014 87.8287 94.3132 85.2472 99.8171 82.6413C99.9874 82.5608 100.17 82.5071 100.482 82.3882C100.482 83.8113 100.482 85.1193 100.482 86.4311C100.482 90.1493 100.482 93.8663 100.482 97.5819C100.482 99.1162 100.482 100.651 100.482 102.166C100.503 102.419 100.437 102.672 100.294 102.885C100.15 103.098 99.9382 103.259 99.6904 103.343C94.2142 105.883 88.7618 108.464 83.2975 111.015C83.1629 111.084 82.9768 111.161 82.7194 111.264Z" fill="white" stroke="#FFD700" stroke-width="1.5" stroke-miterlimit="10"/>
<path d="M82.6767 68.5071C82.6767 68.1964 82.6767 67.9586 82.6767 67.74C82.6767 61.43 82.6767 55.1201 82.6767 48.8101C82.6438 48.5486 82.7044 48.2841 82.8485 48.0607C82.9927 47.8373 83.2116 47.6686 83.4687 47.5827C89.0122 44.9935 94.5794 42.3736 100.131 39.7614C100.225 39.7309 100.322 39.7078 100.42 39.6924C100.459 39.8746 100.486 40.0591 100.499 40.2447C100.499 46.7017 100.499 53.1574 100.499 59.6118C100.522 59.8032 100.478 59.9964 100.375 60.1611C100.272 60.3257 100.115 60.4523 99.9289 60.5209C94.3009 63.1523 88.6796 65.7939 83.0648 68.4457C82.9375 68.4769 82.8077 68.4974 82.6767 68.5071Z" fill="white" stroke="#FFD700" stroke-width="1.5" stroke-miterlimit="10"/>
<path d="M39.4989 111.395C39.1465 111.25 38.9208 111.169 38.7069 111.069C33.2901 108.53 27.8786 105.993 22.4724 103.459C22.2312 103.377 22.0253 103.219 21.8875 103.011C21.7497 102.802 21.688 102.555 21.7122 102.308C21.7399 96.0022 21.7122 89.6923 21.7122 83.3862C21.7122 83.1254 21.7122 82.8607 21.7122 82.4541L25.2758 84.1227C29.7793 86.2426 34.288 88.3536 38.802 90.4556C39.0244 90.5244 39.2161 90.6643 39.3456 90.8525C39.4751 91.0407 39.5347 91.266 39.5147 91.4913C39.4909 97.7974 39.5147 104.104 39.5147 110.413C39.4989 110.701 39.4989 110.977 39.4989 111.395Z" fill="white" stroke="#1479FF" stroke-width="1.5" stroke-miterlimit="10"/>
<path d="M21.716 39.6484C23.7354 40.5882 25.6162 41.4551 27.4892 42.3335C31.2983 44.1236 35.1062 45.9136 38.9127 47.7037C39.1006 47.7646 39.2621 47.8844 39.3718 48.0441C39.4816 48.2039 39.5332 48.3945 39.5185 48.5859C39.5027 55.0659 39.5027 61.5459 39.5185 68.0259C39.5185 68.1678 39.4948 68.3136 39.475 68.4939C39.3415 68.5004 39.2078 68.4862 39.079 68.4517C33.4352 65.8024 27.798 63.1403 22.1674 60.4655C22.0324 60.3615 21.923 60.2298 21.847 60.0799C21.771 59.93 21.7303 59.7656 21.7279 59.5986C21.7002 55.686 21.7081 51.7735 21.7081 47.8609C21.7081 45.4162 21.7081 42.9703 21.7081 40.523C21.716 40.289 21.716 40.0474 21.716 39.6484Z" fill="white" stroke="#1479FF" stroke-width="1.5" stroke-miterlimit="10"/>
<path d="M1.14735 52.8789C3.1628 53.8148 5.06739 54.6933 6.9601 55.564C10.9488 57.4461 14.9375 59.3308 18.9261 61.218C19.1401 61.278 19.3271 61.4059 19.4571 61.5812C19.5871 61.7565 19.6525 61.969 19.6428 62.1846C19.6191 67.6392 19.6428 73.0899 19.6428 78.5444C19.6428 78.7285 19.6032 78.928 19.5676 79.1965L15.2635 77.1866C10.7759 75.0692 6.27112 72.9531 1.74921 70.8383C1.53488 70.778 1.34785 70.6494 1.21847 70.4732C1.08909 70.297 1.02496 70.0837 1.03648 69.8678C1.07607 64.4171 1.08003 58.9625 1.09587 53.5118C1.09587 53.3469 1.11963 53.1628 1.14735 52.8789Z" fill="white" stroke="#1479FF" stroke-width="1.5" stroke-miterlimit="10"/>
<path d="M41.5462 71.8604C42.7341 72.4204 43.7675 72.8845 44.7812 73.3602C49.5882 75.6156 54.3833 77.8864 59.2022 80.115C59.479 80.2108 59.7137 80.3954 59.8671 80.6383C60.0205 80.8811 60.0835 81.1676 60.0456 81.4499C60.006 86.7549 60.006 92.0598 59.9942 97.3648C59.9942 97.5796 59.9704 97.7944 59.9466 98.1319C59.2577 97.8251 58.6479 97.5642 58.05 97.2842C52.8391 94.837 47.6322 92.3782 42.4094 89.9463C42.1297 89.8561 41.8901 89.6762 41.7303 89.4363C41.5705 89.1964 41.4999 88.9108 41.5303 88.6268C41.5699 83.3717 41.5303 78.1127 41.5303 72.8538C41.5462 72.593 41.5462 72.3437 41.5462 71.8604Z" fill="white" stroke="#1479FF" stroke-width="1.5" stroke-miterlimit="10"/>
<path d="M120.929 52.9595C120.949 53.182 120.985 53.3699 120.985 53.554C120.985 58.9242 120.985 64.2637 120.985 69.6185C121.022 69.866 120.971 70.1184 120.841 70.3344C120.711 70.5504 120.509 70.7172 120.268 70.8076C114.57 73.4581 108.884 76.1355 103.194 78.8053C103.02 78.8858 102.83 78.9357 102.572 79.0239C102.549 78.7439 102.517 78.5368 102.517 78.3258C102.517 72.9556 102.517 67.5753 102.517 62.1846C102.489 61.9941 102.527 61.7998 102.625 61.6324C102.723 61.465 102.876 61.3341 103.059 61.2602C108.933 58.5112 114.804 55.7558 120.672 52.994C120.756 52.974 120.843 52.9624 120.929 52.9595Z" fill="white" stroke="#FFD700" stroke-width="1.5" stroke-miterlimit="10"/>
<path d="M80.5185 71.8633C80.5423 72.2047 80.57 72.4156 80.57 72.6304C80.57 78.0006 80.57 83.3477 80.57 88.7026C80.6027 88.9154 80.5604 89.1327 80.4497 89.3193C80.339 89.5059 80.1665 89.6508 79.9602 89.7306C74.1078 92.4591 68.2594 95.203 62.415 97.9622C62.3143 97.992 62.2109 98.0126 62.1062 98.0236C62.1062 97.7743 62.0547 97.548 62.0547 97.3178C62.0784 91.8633 62.0982 86.4087 62.1576 80.9542C62.1894 80.8013 62.256 80.6572 62.3526 80.5325C62.4492 80.4077 62.5733 80.3054 62.7159 80.2331C67.6708 77.8804 72.6348 75.5457 77.6082 73.2288L80.5185 71.8633Z" fill="white" stroke="#FFD700" stroke-width="1.5" stroke-miterlimit="10"/>
<path d="M39.4504 88.5179C38.3853 88.0269 37.435 87.5935 36.4886 87.1485C31.8242 84.9583 27.1478 82.7527 22.4834 80.5816C22.2278 80.496 22.0099 80.3284 21.8659 80.1066C21.7219 79.8849 21.6604 79.6221 21.6915 79.3618C21.7192 74.0569 21.6915 68.7519 21.6915 63.447V62.5264L25.8055 64.4443C30.1532 66.4901 34.5088 68.5358 38.8723 70.5816C39.2683 70.7696 39.5098 70.9652 39.5059 71.4408C39.5059 76.9414 39.5059 82.442 39.5059 87.9349C39.5059 88.0883 39.4782 88.2302 39.4504 88.5179Z" fill="white" stroke="#1479FF" stroke-width="1.5" stroke-miterlimit="10"/>
<path d="M82.7128 88.3637C82.7128 88.0722 82.6772 87.8382 82.6772 87.5966C82.6772 82.2916 82.6772 76.9867 82.6772 71.6817C82.6433 71.4196 82.7034 71.1542 82.8477 70.93C82.9919 70.7058 83.2113 70.5364 83.4691 70.4504C89.0126 67.8651 94.5561 65.2452 100.123 62.6368C100.223 62.6104 100.325 62.595 100.428 62.5908C100.468 62.7691 100.494 62.9498 100.507 63.1317C100.507 68.5364 100.507 73.9372 100.507 79.3419C100.531 79.5681 100.475 79.7953 100.348 79.9868C100.222 80.1782 100.032 80.3227 99.8106 80.3967C94.2301 83 88.6563 85.6186 83.089 88.2525C82.9665 88.2982 82.8408 88.3353 82.7128 88.3637Z" fill="white" stroke="#FFD700" stroke-width="1.5" stroke-miterlimit="10"/>
<path d="M79.1034 9.41164C77.7611 10.0484 76.5256 10.6391 75.2902 11.2221C70.7129 13.3753 66.1329 15.5221 61.5503 17.6625C61.2948 17.7802 61.0016 17.7954 60.7346 17.7047C54.943 15.0043 49.1553 12.2987 43.3716 9.58809C43.2552 9.50969 43.1465 9.42109 43.0469 9.32341C43.7715 8.97435 44.4248 8.65214 45.0861 8.34144C50.231 5.92743 55.3785 3.51853 60.5287 1.11474C60.8055 0.985084 61.1235 0.964459 61.4157 1.05721C67.2231 3.76019 73.0306 6.47851 78.8381 9.21218C78.931 9.27288 79.0196 9.33952 79.1034 9.41164Z" fill="white" stroke="#FF0055" stroke-width="1.5" stroke-miterlimit="10"/>
<path d="M38.6309 28.4304L31.5392 31.7676C28.1141 33.3748 24.6851 34.9705 21.2719 36.5969C21.069 36.7067 20.8397 36.7623 20.6074 36.7583C20.3751 36.7542 20.148 36.6906 19.9493 36.5739C14.4058 33.9579 8.8861 31.3802 3.35052 28.7872C3.12482 28.6836 2.90704 28.5685 2.55859 28.4036C2.83577 28.231 2.99415 28.1274 3.19214 28.0392L16.4569 21.783C17.6765 21.2076 18.9119 20.6667 20.1117 20.0568C20.7373 19.7385 21.1966 20.1527 21.6322 20.3522C27.1321 22.8992 32.6083 25.4922 38.0924 28.0776C38.2778 28.1865 38.4575 28.3043 38.6309 28.4304Z" fill="white" stroke="#FF0055" stroke-width="1.5" stroke-miterlimit="10"/>
<path d="M119.592 28.3522C119.01 28.6399 118.602 28.8509 118.182 29.0465C112.813 31.5705 107.441 34.0855 102.066 36.5916C101.718 36.7308 101.326 36.7308 100.977 36.5916C95.3204 33.9756 89.6726 31.3378 84.0341 28.6783C83.8994 28.6169 83.7767 28.5402 83.5352 28.4098C83.7925 28.2602 83.9628 28.1413 84.1449 28.053C89.7623 25.4089 95.3824 22.7724 101.005 20.1436C101.36 20.0016 101.759 20.0016 102.114 20.1436C104.49 21.2368 106.798 22.3914 109.15 23.4999C111.039 24.3898 112.951 25.226 114.848 26.1044C116.365 26.8217 117.865 27.539 119.592 28.3522Z" fill="white" stroke="#FF0055" stroke-width="1.5" stroke-miterlimit="10"/>
<path d="M43.0469 47.3525L50.0317 44.0767C53.5478 42.4273 57.06 40.774 60.5841 39.1438C60.867 39.0315 61.1842 39.0315 61.4671 39.1438C66.1527 41.3047 70.8304 43.4783 75.5001 45.6647C76.6563 46.2056 77.8046 46.7541 79.1232 47.3793C78.0422 47.901 77.0958 48.3652 76.1376 48.8139C71.3068 51.0809 66.48 53.3517 61.6334 55.588C61.253 55.7402 60.8259 55.7402 60.4455 55.588C57.6263 54.3145 54.7753 52.9681 51.9442 51.6294C49.113 50.2907 46.3453 48.9904 43.5497 47.667C43.3765 47.5708 43.2087 47.4658 43.0469 47.3525Z" fill="white" stroke="#FF0055" stroke-width="1.5" stroke-miterlimit="10"/>
<path d="M23.0078 18.717L29.953 15.4604C33.3068 13.8839 36.6369 12.2997 40.0224 10.75C40.356 10.6172 40.7302 10.6172 41.0638 10.75C46.7181 13.3686 52.3699 16.0076 58.019 18.6671C58.1971 18.7515 58.3555 18.8628 58.6446 19.0277L54.8354 20.8229C50.4798 22.8635 46.1242 24.8965 41.7686 26.9602C41.5538 27.0765 41.3111 27.1359 41.0651 27.1325C40.819 27.1292 40.5782 27.0631 40.3669 26.941C34.8023 24.3071 29.2297 21.6872 23.6493 19.0814C23.475 19.0008 23.3127 18.8896 23.0078 18.717Z" fill="white" stroke="#FF0055" stroke-width="1.5" stroke-miterlimit="10"/>
<path d="M99.1287 18.7712C97.5013 19.5383 96.0165 20.2595 94.5276 20.9576C90.2433 22.9676 85.9629 24.9814 81.6628 26.9607C81.4761 27.0401 81.275 27.083 81.0712 27.0869C80.8673 27.0909 80.6647 27.0558 80.4749 26.9837C75.0818 24.475 69.6928 21.9319 64.2997 19.4079C64.078 19.3043 63.8602 19.1854 63.5078 19.0052L65.4401 18.0922C70.5586 15.6833 75.6771 13.2719 80.7956 10.8579C81.0321 10.7295 81.2986 10.6621 81.5697 10.6621C81.8408 10.6621 82.1073 10.7295 82.3438 10.8579C87.6814 13.3933 93.0348 15.8943 98.3843 18.4029C98.5704 18.4758 98.7684 18.587 99.1287 18.7712Z" fill="white" stroke="#FF0055" stroke-width="1.5" stroke-miterlimit="10"/>
<path d="M23.0664 37.9645L27.6556 35.8165C31.9584 33.7963 36.2652 31.7786 40.5759 29.7635C40.8522 29.6326 41.1702 29.6106 41.4629 29.7022C47.0486 32.3003 52.6265 34.9125 58.1963 37.5387C58.3327 37.6192 58.4649 37.7063 58.5923 37.7996C57.8717 38.1448 57.2539 38.444 56.6362 38.7317C51.4914 41.1508 46.3438 43.5636 41.1936 45.9699C40.8509 46.1299 40.4571 46.1533 40.0968 46.0351C34.5296 43.4549 28.9729 40.8529 23.4267 38.2292C23.3009 38.1485 23.1805 38.0601 23.0664 37.9645Z" fill="white" stroke="#FF0055" stroke-width="1.5" stroke-miterlimit="10"/>
<path d="M99.0255 38.0233C98.1702 38.4375 97.4218 38.7904 96.6497 39.174C91.8321 41.4346 87.008 43.699 82.1772 45.9673C81.9882 46.0778 81.773 46.1391 81.5523 46.1451C81.3317 46.1512 81.1132 46.1018 80.918 46.0018C75.2874 43.332 69.6489 40.6751 64.0024 38.0309C63.8797 37.9734 63.7688 37.889 63.5312 37.7432C64.6835 37.1909 65.7288 36.6807 66.7782 36.1897C71.3581 34.0417 75.9408 31.9 80.526 29.7647C80.827 29.6319 81.1699 29.6195 81.4803 29.7302C87.1796 32.3795 92.8709 35.0467 98.5543 37.7317C98.681 37.7893 98.8077 37.8737 99.0255 38.0233Z" fill="white" stroke="#FF0055" stroke-width="1.5" stroke-miterlimit="10"/>
<path d="M43.5039 28.3834C45.0878 27.6163 46.5449 26.9335 47.9902 26.2545C52.1636 24.2944 56.3331 22.3305 60.5185 20.4011C60.8736 20.2595 61.2721 20.2595 61.6272 20.4011C67.102 22.9429 72.5664 25.5002 78.0201 28.0727C78.1745 28.1456 78.3171 28.2415 78.5863 28.3949C78.1191 28.6327 77.739 28.8399 77.3509 29.0202C72.1611 31.4598 66.9727 33.8981 61.7856 36.3351C61.599 36.4527 61.3841 36.5212 61.162 36.534C60.9398 36.5467 60.7181 36.5033 60.5185 36.408C55.0225 33.7996 49.5186 31.2079 44.0068 28.6327L43.5039 28.3834Z" fill="white" stroke="#FF0055" stroke-width="1.5" stroke-miterlimit="10"/>
</svg>
